<?xml version="1.0" encoding="utf-8"?>
<!-- Generator: Adobe Illustrator 22.0.1, SVG Export Plug-In . SVG Version: 6.00 Build 0)  -->
<svg version="1.1" id="Layer_1" xmlns="http://www.w3.org/2000/svg" xmlns:xlink="http://www.w3.org/1999/xlink" x="0px" y="0px"
	 viewBox="0 0 212.6 212.6" style="enable-background:new 0 0 212.6 212.6;" xml:space="preserve">
<style type="text/css">
	.st0{fill:none;}
	.st1{fill:#231F20;stroke:#231F20;stroke-width:2;stroke-miterlimit:10;}
	.st2{fill:#FFFFFF;stroke:#231F20;stroke-width:2;stroke-miterlimit:10;}
	.st3{fill:none;stroke:#231F20;stroke-width:2.3;stroke-miterlimit:10;}
	.st4{fill:#FFFFFF;stroke:#231F20;stroke-width:0.25;stroke-miterlimit:10;}
	.st5{fill:#231F20;stroke:#231F20;stroke-width:0.25;stroke-miterlimit:10;}
</style>
<g>
	<path id="SVGID_x5F_1_x5F_" class="st0" d="M47.7,94.1c0.6-5.6,2.2-9.8,3.4-12.4c2.6-5.5,5.9-9,9.4-12.7c3.2-3.4,6-5.7,8.7-7.9
		c4-3.2,7-5.7,11.7-8.2c5.6-3,10.4-4.5,13.2-5.2c4.3-1.1,7.5-1.4,8.3-1.5c3.7-0.3,6.4-0.1,8.3,0c5.7,0.4,9.8,1.6,10.9,1.9
		c0.7,0.2,3.6,1,7.1,2.6c1.7,0.7,3.1,1.5,6,3c2.3,1.2,3.4,1.8,4.9,2.6c1.7,1,3.8,2.2,6.4,4.1c1.4,1.1,4,3.1,6.8,6
		c1.9,2,3.2,3.6,5.2,6.4c1.2,1.5,2.7,3.6,4.5,6.4c1.8,2.8,2.6,4.1,3.4,6c1,2.6,1.9,6,1.9,6l0,0l0,0l0.7,4.1"/>
	<text>	<textPath  xlink:href="#SVGID_x5F_1_x5F_" startOffset="0%">
		<linearGradient id="SVGID_2_" gradientUnits="userSpaceOnUse" x1="0" y1="0" x2="1" y2="0">
			<stop  offset="0" style="stop-color:#FFFFFF"/>
			<stop  offset="1" style="stop-color:#000000"/>
		</linearGradient>
<tspan  style="fill:#231F20;stroke:url(#SVGID_2_);stroke-width:0.7;stroke-miterlimit:10; font-family:'SukhumvitSet-Text'; font-size:12.0065px; letter-spacing:299.4;"> </tspan>		<linearGradient id="SVGID_3_" gradientUnits="userSpaceOnUse" x1="0" y1="0" x2="1" y2="0">
			<stop  offset="0" style="stop-color:#FFFFFF"/>
			<stop  offset="1" style="stop-color:#000000"/>
		</linearGradient>
<tspan  style="fill:#231F20;stroke:url(#SVGID_3_);stroke-width:0.7;stroke-miterlimit:10; font-family:'SukhumvitSet-Text'; font-size:12.0065px; letter-spacing:479;">THE COLOMBIAN</tspan>	</textPath>
</text>
	<polygon class="st1" points="175.8,103.3 181,108.5 175.8,113.7 170.6,108.5 	"/>
	<polygon class="st1" points="38.9,103 44.1,108.2 38.9,113.4 33.7,108.2 	"/>
	<path id="SVGID_x5F_4_x5F_" class="st0" d="M38.4,134c7.2,13,15.5,21.8,21.2,27.1c5.5,5,11,9.9,19.8,13.8c12.2,5.4,23,5.2,27.8,5.1
		c4.9-0.1,15.2-0.9,26.8-6.2c9.7-4.4,15.8-9.8,20.3-14c5.4-4.9,13-12.9,19.6-24.7"/>
	<text>	<textPath  xlink:href="#SVGID_x5F_4_x5F_" startOffset="0.4187%">
<tspan  style="fill:#231F20;stroke:#231F20;stroke-width:0.7;stroke-miterlimit:10; font-family:'SukhumvitSet-Text'; font-size:12.0071px; letter-spacing:499;">COFFEE DEALER</tspan>	</textPath>
</text>
	<path class="st2" d="M127.1,115.1"/>
	<path class="st2" d="M107.4,81.7"/>
	<path class="st2" d="M107.4,81.7"/>
	
		<ellipse transform="matrix(5.199498e-03 -1 1 5.199498e-03 -1.39 214.9361)" class="st3" cx="107.3" cy="108.2" rx="80.8" ry="81"/>
	
		<ellipse transform="matrix(5.199498e-03 -1 1 5.199498e-03 -1.0672 215.6061)" class="st3" cx="107.8" cy="108.3" rx="55.1" ry="55.2"/>
	<path class="st2" d="M71.1,120.4"/>
	<polyline class="st3" points="89.1,113 107.7,86.8 126.1,113.1 	"/>
	<g>
		<line class="st4" x1="70.8" y1="122.6" x2="84.2" y2="101.6"/>
		<polygon class="st5" points="71.6,123.1 70.1,121.9 83.5,100.9 84.6,102.9 		"/>
	</g>
	<g>
		<line class="st4" x1="83.3" y1="102.6" x2="93.8" y2="122.5"/>
		<polygon class="st5" points="92.9,123 82.4,103 84.1,102.1 94.6,122.1 		"/>
	</g>
	<g>
		<g>
			<line class="st4" x1="119.3" y1="122.7" x2="132.7" y2="101.7"/>
			<polygon class="st5" points="120.2,123.2 118.7,122 132.1,101 133.1,103 			"/>
		</g>
		<g>
			<line class="st4" x1="131.8" y1="102.7" x2="142.3" y2="122.6"/>
			<polygon class="st5" points="141.4,123.1 130.9,103.1 132.7,102.2 143.2,122.2 			"/>
		</g>
	</g>
</g>
</svg>
